<?xml version="1.0" encoding="utf-8"?>
<!-- Generator: Adobe Illustrator 16.0.0, SVG Export Plug-In . SVG Version: 6.00 Build 0)  -->
<!DOCTYPE svg PUBLIC "-//W3C//DTD SVG 1.1//EN" "http://www.w3.org/Graphics/SVG/1.1/DTD/svg11.dtd">
<svg version="1.1" id="Capa_1" xmlns="http://www.w3.org/2000/svg" xmlns:xlink="http://www.w3.org/1999/xlink" x="0px" y="0px"
	 width="71.351px" height="115.001px" viewBox="220.324 198.499 71.351 115.001"
	 enable-background="new 220.324 198.499 71.351 115.001" xml:space="preserve">
<g>
	<path fill="#FFFFFF" d="M260.978,308.521v-93.026l22.199,22.197c1.943,1.945,5.096,1.945,7.039,0c1.945-1.945,1.945-5.097,0-7.039
		l-30.696-30.696c-1.943-1.945-5.097-1.945-7.039,0l-30.698,30.696c-0.973,0.972-1.458,2.246-1.458,3.52s0.486,2.547,1.458,3.52
		c1.943,1.945,5.096,1.945,7.039,0l22.2-22.197v93.026c0,2.749,2.229,4.979,4.978,4.979S260.978,311.271,260.978,308.521z"/>
</g>
</svg>
