<?xml version="1.0" encoding="utf-8"?>
<!-- Generator: Adobe Illustrator 16.0.0, SVG Export Plug-In . SVG Version: 6.00 Build 0)  -->
<!DOCTYPE svg PUBLIC "-//W3C//DTD SVG 1.1//EN" "http://www.w3.org/Graphics/SVG/1.1/DTD/svg11.dtd">
<svg version="1.1" id="Layer_1" xmlns="http://www.w3.org/2000/svg" xmlns:xlink="http://www.w3.org/1999/xlink" x="0px" y="0px"
	 width="19.147px" height="40.125px" viewBox="0 0 19.147 40.125" enable-background="new 0 0 19.147 40.125" xml:space="preserve">
<path fill="#FFFFFF" d="M10.801,2.002c0,0.749,0,6.304,0,10.714c-1.133-0.871-2.547-1.395-4.086-1.395
	C3.006,11.322,0,14.328,0,18.037c0,3.708,3.006,6.714,6.715,6.714c3.635,0,6.588-2.891,6.703-6.498h0.011V0.002
	C13.429,0.002,11.84-0.154,10.801,2.002z M6.715,22.123c-2.257,0-4.086-1.83-4.086-4.086c0-2.257,1.829-4.086,4.086-4.086
	c2.256,0,4.086,1.83,4.086,4.086C10.801,20.292,8.971,22.123,6.715,22.123z"/>
<path fill="#FFFFFF" d="M10.801,2.002c0,0.749,0,6.304,0,10.714c-1.133-0.871-2.547-1.395-4.086-1.395
	C3.006,11.322,0,14.328,0,18.037c0,3.708,3.006,6.714,6.715,6.714c3.635,0,6.588-2.891,6.703-6.498h0.011V0.002
	C13.429,0.002,11.84-0.154,10.801,2.002z M6.715,22.123c-2.257,0-4.086-1.83-4.086-4.086c0-2.257,1.829-4.086,4.086-4.086
	c2.256,0,4.086,1.83,4.086,4.086C10.801,20.292,8.971,22.123,6.715,22.123z"/>
<path fill="#FFFFFF" d="M10.801,2.002c0,0.749,0,6.304,0,10.714c-1.133-0.871-2.547-1.395-4.086-1.395
	C3.006,11.322,0,14.328,0,18.037c0,3.708,3.006,6.714,6.715,6.714c3.635,0,6.588-2.891,6.703-6.498h0.011V0.002
	C13.429,0.002,11.84-0.154,10.801,2.002z M6.715,22.123c-2.257,0-4.086-1.83-4.086-4.086c0-2.257,1.829-4.086,4.086-4.086
	c2.256,0,4.086,1.83,4.086,4.086C10.801,20.292,8.971,22.123,6.715,22.123z"/>
<path fill="#EEBA1C" d="M12.433,15.375c-3.636,0-6.588,2.891-6.703,6.499H5.719v18.249c0,0,1.589,0.156,2.628-2
	c0-0.749,0-6.305,0-10.714c1.133,0.871,2.546,1.395,4.086,1.395c3.709,0,6.715-3.006,6.715-6.714
	C19.147,18.38,16.142,15.375,12.433,15.375z M12.433,26.175c-2.256,0-4.086-1.829-4.086-4.086s1.83-4.086,4.086-4.086
	c2.257,0,4.087,1.829,4.087,4.086S14.689,26.175,12.433,26.175z"/>
<path fill="#FFFFFF" d="M10.123,15.773c0,0,0.764,1.275,0.666,2.565c-0.086,1.142,2.64-0.222,2.64-0.222v-2.679
	C13.429,15.438,11.125,14.591,10.123,15.773z"/>
</svg>
